<?xml version="1.0" encoding="UTF-8"?><svg id="Layer_2" xmlns="http://www.w3.org/2000/svg" viewBox="0 0 800 800"><defs><style>.cls-1{fill:#fff;}</style></defs><path class="cls-1" d="m689.97,217.16c-1.45-.67-2.86-1.37-4.22-2.1.4-.58.84-1.06,1.32-1.47.48-.4.97-.76,1.47-1.08.95-.61,2.07-.96,3.36-1.04,1.29-.09,2.61.03,3.96.35,1.35.32,2.71.83,4.05,1.54,1.35.71,2.59,1.56,3.74,2.55-.42.84-.99,1.5-1.72,1.96-1.09.7-2.3,1.08-3.62,1.16-1.33.08-2.68-.05-4.07-.37-1.39-.33-2.81-.83-4.26-1.5Zm-197.97-131.24c1.68.23,3.31.5,4.91.82,1.59.32,3.21.67,4.83,1.05,1.05-2.89,2.09-5.76,3.12-8.6,1.03-2.84,2.08-5.62,3.13-8.34-2.43,2.25-5,4.63-7.71,7.16-2.71,2.53-5.47,5.17-8.28,7.91Zm159.82,134.6l-.14.09c-.41.26-.59.5-.54.73.05.22.25.61.59,1.15.7,1.09,1.82,2.28,3.37,3.55,1.55,1.28,3.48,2.62,5.79,4.03.52-1.48,1.05-2.89,1.57-4.22.53-1.33,1.07-2.71,1.62-4.15-3.15-1.12-5.71-1.74-7.7-1.84-1.99-.11-3.51.11-4.57.66ZM381.65,49.25c-1.24.1-2.62.36-4.15.79-1.54.42-3.13,1.08-4.79,1.97-.6,1.94-1.17,4-1.72,6.18-.55,2.18-1.13,4.49-1.75,6.92v-.08c-.09.33-.17.66-.25.99-.08.33-.16.69-.24,1.07,2.64-1.41,5.02-2.93,7.13-4.56,2.11-1.63,3.87-3.24,5.28-4.81,1.41-1.58,2.48-3.04,3.21-4.4.73-1.36,1.06-2.44.99-3.24v-.08c-.33-.68-1.57-.93-3.72-.75Zm418.35,350.75c0,220.91-179.09,400-400,400-26.27,0-51.95-2.54-76.81-7.37l-2.78-13.37c-2.63-12.61-4.15-25.4-4.58-38.24l1.24-5.82,16.63,19.27-.07-.17c-5.38-13.06-9.39-26.6-12.03-40.37l1.44-6.79h0l.87-9.65,17.43,21.5-5.05-18.67c-4.79-17.69-7.38-35.89-7.74-54.18l3.66-40.53,163.82,32.43c6.47,2.49,13.71,2.06,19.84-1.18l13.01-6.87,16.97,14.69c4.11-8.51.21-15.67-4.77-21.14l3.32-1.76-73.72-46.33,81.55,3.62c10.84.48,21.44-3.29,29.54-10.51l43.51-41.37-.22.81,9.08-8.88,9.5-11.69c9.09-18.37.09-42.61-22.01-48.55l-129.98-39.28c-20.13-6.08-33.23-25.45-31.39-46.4l1.16-13.21c-.24-3.01-4.53-8.63-10.37-14.98-18.46-20.07-41.63-35.23-67.24-44.58l-28.9-10.55-56.31-117.77c-4.87-10.17-19.67-9.14-23.08,1.61l-.8,3.24-27.31-54.2c-4.6-9.12-17.61-9.12-22.21,0l-70.06,138.81-79.95,57.57,28.37-11.35-52.31,35.84,34.46-13.72L.09,408.31c-.06-2.76-.09-5.53-.09-8.31C0,179.09,179.09,0,400,0s400,179.09,400,400Zm-61.61-86.72c-3.71-.22-7.73-.4-12.06-.55-4.33-.15-8.62-.24-12.87-.27-4.25-.03-8.3,0-12.17.06-3.86.07-7.16.19-9.9.35l.08-.02c-1.11-.01-1.98.06-2.61.21-1.99.48-3.31,1.5-3.96,3.07-.65,1.57-1.09,3.49-1.31,5.76l-.02-.08c-.15,1.2-.26,2.39-.31,3.57-.05,1.18.01,2.13.19,2.86.23.94.65,1.67,1.28,2.19s1.57.76,2.84.73l-.1-.06c4.46.09,9.17.22,14.14.38,4.97.16,10,.38,15.08.65s10.14.55,15.17.84c5.03.29,9.83.57,14.39.86.73,2.1,1.41,4.11,2.04,6.04.63,1.93,1.3,3.77,2,5.55.48,1.55,1.04,2.55,1.68,3.01.63.46,1.48.56,2.53.31.73-.18,1.5-.47,2.28-.88.79-.41,1.57-.91,2.35-1.48.78-.58,1.5-1.18,2.18-1.81s1.28-1.26,1.79-1.89c.58-.81.97-1.68,1.16-2.61.19-.93.09-2.24-.32-3.92-.77-2.75-1.71-5.83-2.8-9.22-1.1-3.4-2.26-6.86-3.5-10.38-1.24-3.53-2.51-6.98-3.82-10.35-1.31-3.37-2.56-6.38-3.75-9.03-.46-1-.98-1.72-1.56-2.16-.58-.44-1.37-.54-2.36-.31-.68.17-1.31.43-1.89.79l.08-.02-.65.41c-.87.54-1.82,1.2-2.85,1.98-1.03.78-1.99,1.62-2.88,2.52-.89.91-1.59,1.88-2.08,2.91-.5,1.03-.62,2.1-.35,3.2.24,1,.62,2.01,1.15,3.05.53,1.04,1.1,2.28,1.73,3.74ZM332.46,48.24c-.21-.72-.54-1.47-.99-2.24-.45-.77-.98-1.53-1.59-2.28-.61-.75-1.25-1.45-1.91-2.1-.67-.65-1.32-1.22-1.97-1.7-.83-.54-1.72-.89-2.66-1.04-.94-.15-2.24.02-3.9.5-2.71.9-5.74,1.98-9.08,3.23-3.34,1.25-6.74,2.58-10.21,3.98-3.47,1.4-6.85,2.83-10.16,4.3-3.31,1.47-6.26,2.86-8.85,4.17-.98.51-1.67,1.06-2.09,1.66-.42.6-.48,1.39-.2,2.37.2.67.49,1.29.88,1.85l-.02-.08.44.63c.58.84,1.28,1.76,2.11,2.76.82,1,1.71,1.92,2.66,2.77.95.85,1.95,1.5,3.01,1.95,1.06.45,2.13.52,3.21.2.98-.29,1.98-.71,2.99-1.29,1.01-.57,2.23-1.21,3.66-1.9-.04,3.72-.04,7.74.01,12.08.05,4.34.16,8.62.33,12.87.17,4.25.37,8.3.62,12.15.25,3.86.52,7.15.8,9.87l-.02-.08c.04,1.11.15,1.98.33,2.6.57,1.97,1.66,3.24,3.25,3.81,1.6.58,3.54.92,5.82,1.05l-.08.02c1.21.1,2.4.14,3.58.14,1.18,0,2.13-.11,2.85-.32.93-.27,1.64-.73,2.13-1.38.49-.65.68-1.6.6-2.87l-.05.1c-.12-4.46-.21-9.17-.28-14.15-.07-4.97-.09-10.01-.05-15.1.04-5.09.08-10.15.14-15.19.05-5.04.12-9.84.19-14.41,2.06-.82,4.04-1.59,5.94-2.31,1.9-.72,3.71-1.47,5.45-2.26,1.52-.55,2.5-1.16,2.92-1.82.43-.66.49-1.5.19-2.54Zm70.48,4.53c-.17-2.04-.57-3.93-1.19-5.66-.63-1.73-1.4-3.32-2.3-4.76-.9-1.44-1.88-2.75-2.92-3.94-1.04-1.19-2.07-2.28-3.07-3.28-1.65-1.6-3.53-2.66-5.66-3.19-2.12-.53-4.31-.7-6.57-.52-1.93.16-3.94.54-6.03,1.14-2.09.6-4.19,1.33-6.31,2.18-2.12.85-4.22,1.81-6.3,2.87-2.08,1.06-4.07,2.13-5.98,3.21-1.04.57-2.04,2.19-3.01,4.87-.97,2.67-1.88,5.91-2.73,9.71-.85,3.8-1.65,7.95-2.39,12.44-.74,4.5-1.41,8.84-2.02,13.02-.61,4.19-1.14,8.02-1.62,11.49s-.83,6.08-1.06,7.83c-.09.93-.1,1.77-.04,2.52.12,1.45.48,2.58,1.09,3.4.61.82,1.39,1.44,2.34,1.88.96.44,2.04.77,3.24.99s2.47.47,3.79.74c.71.16,1.4.21,2.04.16,1.07-.09,1.87-.43,2.39-1.01.52-.58.9-1.43,1.13-2.53.57-2.97,1.17-5.91,1.79-8.83.63-2.92,1.27-5.94,1.93-9.08,1.38,1.62,2.83,3.2,4.36,4.75,1.53,1.55,3.07,3.03,4.62,4.45,1.55,1.41,3.05,2.71,4.5,3.89,1.45,1.18,2.75,2.18,3.9,3.01,1.36.81,2.65,1.35,3.86,1.63,1.21.28,2.33.38,3.35.29.7-.06,1.34-.18,1.92-.36.58-.18,1.18-.38,1.82-.6l-.07.09c.42-.09,1.01-.31,1.77-.67.75-.36,1.5-.8,2.24-1.32.74-.52,1.37-1.14,1.88-1.86.51-.72.73-1.48.66-2.28-.1-1.18-.78-2.29-2.06-3.32v.08c-1.21-1.04-2.53-2.21-3.93-3.53-1.41-1.32-2.83-2.7-4.28-4.15-1.44-1.45-2.86-2.92-4.25-4.4-1.39-1.48-2.69-2.9-3.88-4.27,5.46-3.26,10.12-6.63,13.98-10.11,3.85-3.48,6.57-7.15,8.14-11.01v.08c.36-.95.62-1.9.79-2.86.16-.96.2-2.03.1-3.21Zm36.04,11.18c.97-1.96,1.91-3.93,2.83-5.92.92-1.99,1.79-3.83,2.63-5.53,3.37-.12,6.55-.2,9.54-.23,2.98-.03,5.88-.03,8.7,0,1.79-.02,3.04-.29,3.75-.82.71-.52,1.14-1.5,1.29-2.95.08-.75.05-1.48-.09-2.2l.07.09c-.06-.93-.16-1.81-.29-2.63-.13-.83-.39-1.88-.8-3.18v.08c-.34-1.44-.94-2.57-1.8-3.36-.86-.8-2.15-1.29-3.87-1.47l-.4-.04c-2.85-.2-5.75-.27-8.68-.2-2.94.06-5.81.19-8.62.37-2.81.18-5.52.42-8.13.71-2.61.29-5.01.59-7.21.89l-1.17,1.01-19.75,52.03c-.25.79-.42,1.58-.5,2.39-.15,1.39-.06,2.59.26,3.61.33,1.01.82,1.96,1.48,2.84v-.08c.8,1.17,1.54,2.21,2.23,3.13.69.91,1.37,1.72,2.06,2.42.68.7,1.45,1.25,2.3,1.67.85.42,1.86.69,3.04.82,1.02.11,2.3.06,3.84-.16l-.09.07c3.46-.39,7.03-.77,10.74-1.16,3.7-.39,7.3-.77,10.82-1.15,1.59-.15,2.7-.44,3.35-.86.64-.42,1.03-1.24,1.16-2.48.15-1.39.05-2.89-.29-4.5-.34-1.61-.76-3.09-1.27-4.45v.08c-.35-1.34-.94-2.34-1.76-2.99-.82-.66-1.96-1.06-3.41-1.22-2.41-.26-4.72-.35-6.92-.26s-4.35.21-6.42.37c.21-.95.6-2.04,1.16-3.25.56-1.21,1.12-2.33,1.66-3.36,1.92-.23,3.87-.41,5.83-.55,1.97-.14,3.99-.31,6.07-.52h-.08c1.42-.07,2.79-.13,4.12-.17,1.33-.05,2.51-.18,3.54-.39,1.03-.21,1.88-.57,2.55-1.07.68-.5,1.07-1.2,1.16-2.11.05-.48.01-1.14-.11-1.96l.07.09c-.15-1.15-.29-2.29-.44-3.42-.15-1.13-.48-2.34-.99-3.64v.08c-.46-1.4-1.11-2.4-1.96-2.98-.86-.58-2.07-.95-3.62-1.12l-.56-.06c-2.37-.2-4.71-.29-7.04-.27Zm87.03,12.8c1.76-4.59,3.37-8.52,4.82-11.8l-.02.08c.13-.24.23-.49.31-.75.09-.31.18-.59.26-.85.41-1.34.46-2.52.15-3.55-.31-1.02-1.18-2.06-2.6-3.12l-1.27-.81c-1.62-1.17-3.53-2.41-5.75-3.74-2.22-1.32-5.1-2.53-8.66-3.61-2.11-.64-3.92-.7-5.4-.17-1.49.53-2.87,1.34-4.16,2.41-3.42,2.9-7.25,6.36-11.48,10.36-4.23,4.01-8.52,8.17-12.84,12.48-4.33,4.32-8.5,8.58-12.52,12.8-4.01,4.22-7.5,8.01-10.44,11.4-.63.77-1.11,1.47-1.44,2.1-.33.63-.59,1.23-.76,1.8-.25.83-.27,1.62-.05,2.39.22.77.56,1.52,1.04,2.26.48.74,1.06,1.46,1.75,2.18.68.72,1.37,1.4,2.07,2.07l.79.75c.85.71,1.69,1.19,2.52,1.44.93.28,1.92.08,2.98-.61s2.19-1.63,3.39-2.81c1.2-1.18,2.44-2.5,3.69-3.95,1.26-1.45,2.52-2.77,3.78-3.96,2.78.12,5.94.42,9.49.9,3.54.49,7.14,1.01,10.81,1.56l-.32,1.59c-1.02,3.35-1.84,6.31-2.45,8.89-.53,2.09-.62,3.66-.29,4.69.33,1.03,1.22,2.05,2.66,3.05l-.05-.1c1.17.97,2.35,1.7,3.56,2.18,1.21.48,2.53.94,3.98,1.38,1.91.58,3.26.66,4.07.23s1.46-1.47,1.96-3.12c1.66-4.9,3.43-10.07,5.31-15.5s3.76-10.73,5.64-15.9c1.88-5.17,3.71-10.05,5.47-14.64Zm35.52,42.5c3.6-3.6,7.19-7.17,10.76-10.72,3.57-3.55,6.99-6.93,10.25-10.12,2.05.86,4,1.7,5.85,2.52,1.85.82,3.67,1.56,5.46,2.22,1.47.67,2.59.93,3.36.76s1.4-.73,1.92-1.68c.36-.66.65-1.43.87-2.29.22-.86.38-1.77.47-2.73.09-.96.13-1.91.11-2.84-.02-.93-.09-1.79-.21-2.59-.21-.97-.6-1.84-1.16-2.61-.57-.77-1.61-1.56-3.12-2.38-2.56-1.26-5.47-2.62-8.73-4.08-3.26-1.45-6.61-2.9-10.06-4.34-3.45-1.44-6.87-2.8-10.25-4.07-3.38-1.28-6.46-2.36-9.23-3.25-1.05-.32-1.94-.42-2.65-.28-.72.13-1.32.65-1.8,1.55-.33.62-.56,1.26-.68,1.93l.04-.07-.13.76c-.18,1.01-.32,2.15-.44,3.44-.11,1.29-.13,2.56-.05,3.83.08,1.27.34,2.44.77,3.5.44,1.06,1.15,1.86,2.15,2.4.9.49,1.91.88,3.04,1.18,1.12.3,2.44.71,3.94,1.21-2.64,2.62-5.46,5.49-8.47,8.61-3.01,3.12-5.94,6.25-8.8,9.39-2.86,3.14-5.56,6.17-8.09,9.09-2.53,2.92-4.65,5.45-6.36,7.59l.04-.07c-.75.82-1.28,1.51-1.59,2.08-.97,1.8-1.1,3.47-.36,5,.73,1.53,1.87,3.14,3.41,4.83l-.07-.04c.79.92,1.61,1.79,2.45,2.61.84.82,1.59,1.41,2.26,1.77.85.46,1.68.63,2.48.51.8-.12,1.61-.66,2.44-1.62l-.11.03c3.05-3.25,6.29-6.68,9.74-10.27,3.44-3.59,6.96-7.19,10.57-10.78Zm73.4,33.02c1.52-1.02,2.99-2.05,4.39-3.1,1.41-1.05,2.63-2.04,3.68-3l1.22-1.51c.98-1.21,1.83-2.59,2.53-4.14.7-1.55.92-3.53.67-5.96-.15-1.44-.49-2.97-1.02-4.58-.53-1.61-1.18-3.2-1.96-4.77-.78-1.57-1.64-3.02-2.61-4.36-.96-1.34-1.97-2.43-3.01-3.28-1.51-1.22-3.05-2.13-4.62-2.71-1.57-.58-2.96-.87-4.14-.86h.11c-2.15-.36-4.48-.51-7-.44-2.52.07-5.04.3-7.54.7-2.51.39-4.91.96-7.21,1.7-2.3.74-4.28,1.61-5.94,2.63h.11c-2.91,1.52-5.23,3.35-6.96,5.48-1.73,2.13-2.93,4.46-3.59,6.98-.66,2.52-.82,5.06-.47,7.64l.05-.06c.19,2.16.57,4.44,1.17,6.83.59,2.39,1.17,4.65,1.74,6.77.57,2.13,1.02,3.97,1.38,5.55.35,1.57.37,2.64.05,3.21-.88-.02-1.79-.41-2.71-1.16-2.68-2.18-4.92-6.64-6.73-13.38-.28-1.2-.81-2.34-1.59-3.43-.78-1.09-1.72-2.07-2.81-2.96-.75-.61-1.59-1.17-2.5-1.67-.91-.5-1.88-.89-2.91-1.16l-.18-.04c-.86-.14-1.66-.1-2.4.13-.74.23-1.39.6-1.95,1.12l-.2.25c-.78.96-1.14,3.2-1.08,6.72-.04,5.94.87,10.95,2.71,15.01,1.84,4.06,4.47,7.49,7.9,10.27l.82.66c2.75,2.17,5.42,3.69,8,4.57,2.58.88,5,1.35,7.24,1.41s4.29-.18,6.14-.69c1.84-.52,3.44-1.09,4.79-1.73h-.12c1.72-.74,3.06-1.7,4.01-2.88,1.43-1.76,2.15-3.79,2.15-6.11,0-2.32-.29-4.82-.89-7.49-.6-2.68-1.29-5.45-2.04-8.32-.76-2.87-1.22-5.7-1.4-8.48-.09-.83,0-1.6.25-2.3.25-.7.6-1.32,1.04-1.86.92-1.13,2.14-2.06,3.68-2.79,1.53-.73,3.13-1.31,4.79-1.73,1.66-.42,3.26-.66,4.81-.73,1.54-.06,2.83,0,3.84.21h.11s.1.04.18.03c-.7.61-1.58,1.28-2.63,2.03-1.05.74-2.12,1.49-3.19,2.26-1.07.76-2.05,1.48-2.94,2.14-.89.67-1.5,1.21-1.84,1.63-2.85,3.51-2.48,8.4,1.12,14.65.46.79,1.01,1.45,1.64,1.96.75.61,1.51.91,2.28.91.77,0,1.7-.25,2.8-.75,1.28-.55,2.68-1.27,4.2-2.16,1.52-.89,3.04-1.84,4.56-2.86Zm32.41,107.73c.32-.2.62-.58.92-1.11.29-.54.56-1.16.79-1.85.23-.69.45-1.42.66-2.2.21-.77.42-1.55.63-2.32l-.07.04.49-1.94c.83.3,1.83.49,3,.57,1.17.08,2.37.05,3.59-.09,1.22-.14,2.38-.37,3.49-.69,1.1-.32,2.07-.74,2.88-1.27.59-.38,1.15-.85,1.69-1.41.53-.57.97-1.16,1.3-1.79.33-.63.51-1.27.54-1.93.03-.66-.15-1.28-.52-1.87-.38-.59-1-1.12-1.88-1.58-.87-.47-1.86-.91-2.96-1.33-1.1-.42-2.24-.81-3.43-1.17-1.19-.36-2.29-.73-3.3-1.11.55-1.44,1.09-2.84,1.63-4.21.53-1.36,1.11-2.76,1.74-4.18,2.77,1.43,5.57,2.76,8.4,3.99,2.83,1.23,5.48,2.08,7.96,2.54l-.04-.07c5.35,1.06,9.88.4,13.61-1.98,3.82-2.44,6.49-6.41,8.02-11.93.96-3.3,1.26-6.08.9-8.35s-1.15-4.35-2.37-6.26c-1.22-1.91-2.72-3.7-4.49-5.38-1.78-1.68-3.73-3.13-5.86-4.36-2.13-1.23-4.37-2.18-6.72-2.86-2.35-.67-4.68-.97-7-.9l.07-.04c-4.11.07-7.62,1.03-10.53,2.89-.73.46-1.5,1.04-2.31,1.72-.81.68-1.62,1.47-2.42,2.36-.8.9-1.56,1.86-2.28,2.89-.72,1.03-1.32,2.12-1.8,3.26-.15.16-.4.48-.74.95-2.64-1.32-5.21-2.43-7.73-3.31-2.52-.89-4.93-1.49-7.24-1.8-2.31-.32-4.5-.31-6.56.02-2.06.33-3.93,1.03-5.61,2.1-1.73,1.1-3.26,2.71-4.6,4.81-1.34,2.1-2.21,4.75-2.6,7.94-.39,3.19-.25,5.99.43,8.41.68,2.41,1.6,4.59,2.78,6.52.9,1.41,1.91,2.66,3.03,3.77,1.12,1.1,2.24,2.13,3.36,3.08l-.04-.07c1.54,1.51,3.17,2.87,4.9,4.06,1.73,1.2,3.52,2.26,5.39,3.18l-.37,1.67c-.32,2-.44,3.54-.35,4.64.09,1.09.47,2.16,1.14,3.21.9,1.41,1.9,2.4,3,2.97,1.1.58,2.26,1.11,3.48,1.62l-.11-.02c.86.35,1.62.55,2.26.62.65.07,1.27-.09,1.86-.47Zm69.05,286.94l.04.11c-.23-2.16-.71-4.45-1.44-6.86-.73-2.41-1.62-4.78-2.66-7.09-1.04-2.31-2.22-4.48-3.54-6.51-1.32-2.02-2.69-3.7-4.1-5.03l.04.11c-2.24-2.4-4.62-4.15-7.14-5.26-2.51-1.11-5.08-1.65-7.68-1.62-2.6.03-5.1.55-7.49,1.56l.07.03c-2.04.75-4.13,1.73-6.28,2.93-2.15,1.2-4.17,2.36-6.07,3.46-1.9,1.11-3.56,2.04-4.99,2.79-1.42.76-2.45,1.05-3.09.89-.21-.86-.08-1.83.4-2.92,1.39-3.16,5.1-6.5,11.13-10.03,1.08-.58,2.04-1.4,2.88-2.44.84-1.04,1.55-2.21,2.11-3.49.39-.89.71-1.84.95-2.85.24-1.01.36-2.05.35-3.11v-.18c-.1-.86-.35-1.62-.77-2.28-.42-.65-.95-1.18-1.6-1.59l-.3-.13c-1.13-.5-3.39-.26-6.77.73-5.74,1.54-10.33,3.73-13.76,6.57-3.43,2.85-6.04,6.29-7.82,10.34l-.42.96c-1.36,3.23-2.13,6.2-2.3,8.93-.17,2.72.02,5.17.56,7.36.54,2.18,1.3,4.09,2.29,5.73.99,1.64,1.96,3.03,2.94,4.16l-.04-.11c1.18,1.46,2.46,2.5,3.84,3.11,2.07.91,4.23,1.07,6.47.46,2.24-.6,4.57-1.55,6.99-2.84,2.42-1.29,4.92-2.68,7.49-4.17,2.57-1.49,5.17-2.68,7.81-3.58.78-.3,1.54-.42,2.28-.36.74.06,1.43.23,2.07.51,1.33.59,2.55,1.52,3.67,2.81,1.11,1.29,2.09,2.67,2.94,4.16.84,1.49,1.5,2.97,1.97,4.45.47,1.47.74,2.73.82,3.76l.04.11s-.02.11,0,.18c-.77-.52-1.66-1.19-2.65-2.01-.99-.82-2-1.65-3.02-2.48-1.02-.83-1.97-1.59-2.84-2.27-.88-.68-1.56-1.13-2.06-1.35-4.14-1.82-8.76-.18-13.84,4.95-.64.66-1.13,1.36-1.45,2.1-.39.89-.48,1.7-.28,2.44.21.74.69,1.57,1.46,2.5.87,1.09,1.94,2.25,3.19,3.48,1.25,1.23,2.57,2.44,3.96,3.64,1.38,1.2,2.77,2.34,4.15,3.42,1.38,1.08,2.67,2,3.86,2.76l1.78.78c1.43.63,2.98,1.08,4.66,1.35,1.68.27,3.65-.04,5.93-.92,1.35-.53,2.73-1.26,4.15-2.19,1.42-.94,2.78-1.99,4.08-3.15,1.31-1.16,2.48-2.38,3.51-3.67,1.04-1.28,1.83-2.54,2.37-3.77.78-1.78,1.25-3.5,1.39-5.17.15-1.67.06-3.08-.26-4.22Zm19.95-66.25c-2.23-1.51-4.75-3.16-7.55-4.95s-5.76-3.62-8.87-5.49c-3.11-1.87-6.31-3.75-9.59-5.63-3.28-1.88-6.45-3.67-9.53-5.36-3.08-1.69-5.99-3.25-8.75-4.66-2.76-1.42-5.2-2.62-7.34-3.6l.14.12c-.48-.29-.91-.51-1.29-.66-.38-.15-.75-.27-1.12-.36-1.2-.3-2.3-.36-3.29-.16-1,.19-1.95.56-2.87,1.11l-1.96,1.17.02-.08c-.84.46-1.57.88-2.2,1.28-.63.4-1.28.82-1.94,1.26l.08.02c-.67.44-1.27.96-1.81,1.55-.54.59-.96,1.48-1.26,2.68-.14.57-.26,1.2-.35,1.87-.09.67-.1,1.43-.04,2.28l.02-.08c0,3.33-.11,6.82-.3,10.47-.2,3.65-.32,7.21-.36,10.71l.06.1c.04,1.62.19,2.77.46,3.45.27.68.88,1.14,1.82,1.38,1.15.29,2.63.43,4.44.41,1.81-.02,3.5-.27,5.07-.76l-.1.06c1.41-.31,2.48-.81,3.21-1.48.73-.68,1.26-1.67,1.58-2.98.58-2.3.95-4.44,1.12-6.43.17-1.99.34-4.01.53-6.08,3.43,2.03,6.95,4.14,10.54,6.32,3.59,2.18,7.12,4.35,10.57,6.5,3.46,2.15,6.75,4.26,9.87,6.32,3.12,2.06,5.96,3.98,8.52,5.73l-.06-.1c.51.41.95.71,1.31.92.37.2.76.36,1.18.46.94.24,2.05-.03,3.33-.79,1.28-.76,2.54-1.76,3.8-3,1.26-1.24,2.38-2.61,3.37-4.11.99-1.5,1.64-2.88,1.96-4.13.47-1.88-.33-3.64-2.42-5.28Zm7.91-37.51c-.49-.71-1.39-1.41-2.72-2.11-2.21-1.02-4.9-2.18-8.06-3.47-3.16-1.29-6.54-2.64-10.15-4.04-3.61-1.4-7.32-2.83-11.14-4.28-3.82-1.45-7.5-2.82-11.04-4.11-3.54-1.28-6.84-2.43-9.89-3.44-3.06-1.01-5.61-1.8-7.66-2.37-.47-.16-.88-.29-1.22-.39-.34-.09-.78-.17-1.32-.24-1.23-.14-2.31.04-3.24.56-.93.52-1.76,1.25-2.5,2.19-.74.94-1.39,2.01-1.96,3.19-.57,1.18-1.15,2.39-1.73,3.62-.22.46-.37.88-.47,1.25-.1.37-.16.69-.19.95-.13,1.07.04,1.86.49,2.38.46.51,1.25,1.03,2.38,1.54,2.59,1.01,5.51,2.15,8.75,3.43,3.24,1.28,6.61,2.62,10.11,4.04,3.5,1.41,7.06,2.86,10.68,4.35,3.62,1.48,7.13,2.95,10.51,4.41,3.38,1.46,6.56,2.85,9.52,4.17,2.96,1.33,5.55,2.53,7.76,3.6.98.44,1.87.71,2.67.8.91.11,1.73-.03,2.45-.4.72-.38,1.52-1.06,2.4-2.04l-.09.07c.68-.73,1.37-1.58,2.05-2.53.68-.95,1.31-1.95,1.9-2.99.58-1.04,1.08-2.04,1.49-3,.41-.96.66-1.78.74-2.48.13-1.07-.05-1.96-.54-2.67Zm4.23-42.05c.53-2.53.72-5.65.58-9.37-.08-2.21-.62-3.93-1.61-5.16-.99-1.23-2.2-2.28-3.63-3.14-3.86-2.28-8.38-4.77-13.54-7.47-5.17-2.69-10.5-5.38-16-8.06-5.49-2.68-10.89-5.23-16.18-7.65-5.3-2.42-10.02-4.47-14.18-6.15-.93-.34-1.75-.57-2.45-.68-.71-.11-1.35-.15-1.95-.13-.86.03-1.62.28-2.28.73-.66.46-1.26,1.03-1.8,1.72-.54.69-1.04,1.48-1.49,2.36-.45.88-.88,1.76-1.28,2.64l-.45.99c-.39,1.04-.57,1.99-.54,2.85.04.97.55,1.84,1.55,2.61,1,.77,2.25,1.53,3.77,2.29,1.51.75,3.16,1.49,4.94,2.2,1.78.71,3.44,1.48,4.98,2.28.8,2.67,1.55,5.75,2.25,9.26.7,3.51,1.38,7.08,2.06,10.72l-1.61.22c-3.5.13-6.57.32-9.2.58-2.15.19-3.66.61-4.52,1.26-.87.65-1.54,1.82-2.01,3.51l.08-.08c-.54,1.42-.84,2.78-.9,4.08-.06,1.3-.06,2.7,0,4.21.07,1.99.45,3.3,1.12,3.92.67.62,1.87.9,3.59.84,5.18-.03,10.64-.05,16.38-.04,5.74,0,11.37.05,16.87.14,5.5.09,10.71.22,15.63.39,4.91.17,9.16.4,12.73.7h-.08c.27.05.54.06.81.05.32-.01.62-.02.89-.03,1.4-.05,2.53-.39,3.4-1.02.87-.63,1.57-1.78,2.1-3.48l.35-1.47c.58-1.91,1.13-4.13,1.65-6.65Zm-41.62-17.26c.33,1.66.61,3.29.83,4.9.22,1.61.42,3.25.59,4.91,3.08.05,6.12.1,9.15.15,3.02.05,5.99.13,8.91.24-2.92-1.56-6.01-3.21-9.29-4.95-3.27-1.74-6.67-3.49-10.19-5.24Z"/></svg>