<?xml version="1.0" encoding="UTF-8"?><svg id="Layer_2" xmlns="http://www.w3.org/2000/svg" viewBox="0 0 800 800"><path d="m391.06,315.8c-.85.74-2.44,1.18-4.77,1.34-2.71.39-5.52.7-8.43.93s-5.95.5-9.12.81c-1.94,6.28-3.95,12.88-6.04,19.82-2.09,6.94-4.18,13.91-6.28,20.92-2.09,7.01-4.09,13.97-5.99,20.87-1.9,6.9-3.66,13.45-5.29,19.65l.12-.12c-.39,1.78-1.05,3.02-1.98,3.72-.93.7-2.09,1.05-3.49,1.05-1.09,0-2.44-.23-4.07-.7-1.63-.46-3.25-1.01-4.88-1.63h.12c-3.1-1.08-5.64-2.34-7.61-3.78-1.98-1.43-2.96-3.62-2.96-6.57,0-.93.19-2.17.58-3.72v.12c.7-3.87,1.65-8.52,2.85-13.95,1.2-5.42,2.54-11.1,4.01-17.03,1.47-5.93,3.04-11.9,4.71-17.9,1.67-6,3.27-11.57,4.82-16.68-2.25.39-4.18.78-5.81,1.16-1.63.39-3.18.58-4.65.58-1.63,0-3.08-.52-4.36-1.57-1.28-1.05-2.4-2.34-3.37-3.89-.97-1.55-1.82-3.18-2.56-4.88-.74-1.7-1.34-3.25-1.8-4.65l-.35-1.05v.12c-.31-.93-.46-1.9-.46-2.91,0-1.47.41-2.54,1.22-3.2.81-.66,1.99-1.14,3.54-1.45,4.11-.77,8.74-1.51,13.89-2.21,5.15-.7,10.4-1.32,15.75-1.86,5.35-.54,10.58-1.01,15.69-1.4,5.11-.39,9.72-.66,13.83-.81,2.48,0,4.34.29,5.58.87,1.24.58,2.33,1.42,3.25,2.5.7.93,1.38,1.98,2.04,3.14.66,1.16,1.26,2.38,1.8,3.66.54,1.28.97,2.54,1.28,3.78.31,1.24.46,2.4.46,3.49,0,1.55-.43,2.69-1.28,3.43Z"/><path d="m433.14,394.68c-1.94-1.86-3.93-3.89-5.99-6.1-2.05-2.21-4.09-4.51-6.1-6.92-2.02-2.4-3.91-4.84-5.7-7.32-1.32,4.42-2.6,8.68-3.84,12.79-1.24,4.11-2.44,8.25-3.6,12.44-.46,1.55-1.1,2.71-1.92,3.49-.81.77-2,1.16-3.55,1.16-.93,0-1.9-.16-2.91-.46-1.86-.54-3.64-1.05-5.35-1.51-1.71-.46-3.22-1.06-4.53-1.8-1.32-.74-2.36-1.72-3.14-2.96-.77-1.24-1.16-2.91-1.16-5,0-1.08.12-2.28.35-3.6.54-2.48,1.36-6.18,2.44-11.1,1.08-4.92,2.3-10.35,3.66-16.27,1.36-5.93,2.83-12.07,4.42-18.42,1.59-6.35,3.21-12.21,4.88-17.55,1.67-5.35,3.35-9.88,5.06-13.6,1.7-3.72,3.33-5.93,4.88-6.63,2.87-1.32,5.85-2.62,8.95-3.89,3.1-1.28,6.22-2.4,9.36-3.37,3.14-.97,6.24-1.76,9.3-2.38,3.06-.62,5.99-.93,8.78-.93,3.25,0,6.37.5,9.36,1.51,2.98,1.01,5.56,2.75,7.73,5.23,1.32,1.55,2.65,3.24,4.01,5.06,1.36,1.82,2.6,3.82,3.72,5.99,1.12,2.17,2.03,4.53,2.73,7.09.7,2.56,1.05,5.31,1.05,8.25,0,1.71-.17,3.24-.52,4.59-.35,1.36-.83,2.69-1.45,4.01v-.12c-2.71,5.35-7.03,10.29-12.96,14.82-5.93,4.53-13,8.82-21.21,12.84,1.55,2.09,3.24,4.28,5.06,6.57,1.82,2.29,3.68,4.55,5.58,6.8,1.9,2.25,3.78,4.4,5.64,6.45,1.86,2.05,3.6,3.89,5.23,5.52v-.12c1.7,1.63,2.56,3.29,2.56,5,0,1.16-.41,2.23-1.22,3.2-.81.97-1.78,1.78-2.91,2.44-1.12.66-2.25,1.2-3.37,1.63-1.12.43-2,.68-2.62.75l.12-.12c-.93.23-1.82.45-2.67.64-.85.19-1.78.29-2.79.29-1.47,0-3.06-.27-4.77-.81-1.71-.54-3.49-1.47-5.35-2.79-1.55-1.32-3.29-2.91-5.23-4.77Zm6.74-73.76c-2.25.43-4.61,1.18-7.09,2.27-1.09,2.71-2.15,5.6-3.2,8.66-1.05,3.06-2.15,6.3-3.31,9.71v-.12c-.16.46-.31.93-.46,1.4-.16.46-.31.97-.46,1.51,3.95-1.7,7.54-3.6,10.75-5.7,3.21-2.09,5.93-4.18,8.14-6.28,2.21-2.09,3.91-4.07,5.12-5.93,1.2-1.86,1.8-3.37,1.8-4.53v-.12c-.39-1.01-2.13-1.51-5.23-1.51-1.78,0-3.8.21-6.04.64Z"/><path d="m496.02,302.61c3.1-.77,6.49-1.57,10.17-2.38,3.68-.81,7.52-1.57,11.51-2.27,3.99-.7,8.08-1.32,12.26-1.86,4.18-.54,8.33-.89,12.44-1.05h.58c2.48,0,4.4.5,5.75,1.51,1.36,1.01,2.38,2.52,3.08,4.53v-.12c.77,1.78,1.32,3.25,1.63,4.42.31,1.16.58,2.4.81,3.72l-.12-.12c.31,1.01.46,2.05.46,3.14,0,2.09-.46,3.57-1.39,4.42-.93.85-2.67,1.44-5.23,1.74-4.03.39-8.18.83-12.44,1.34-4.26.5-8.8,1.1-13.6,1.8-.93,2.56-1.9,5.33-2.91,8.31-1.01,2.98-2.05,5.95-3.14,8.89,3.33-.39,6.7-.62,10.11-.7h.81c2.25,0,4.03.35,5.35,1.05,1.32.7,2.4,2.02,3.25,3.95v-.12c.93,1.78,1.59,3.47,1.98,5.06.39,1.59.77,3.2,1.16,4.82l-.12-.12c.31,1.16.46,2.09.46,2.79,0,1.32-.45,2.38-1.34,3.2-.89.81-2.05,1.45-3.49,1.92-1.43.47-3.1.83-5,1.1-1.9.27-3.86.56-5.87.87h.12c-2.95.62-5.81,1.18-8.6,1.69-2.79.51-5.54,1.07-8.25,1.69-.62,1.55-1.24,3.24-1.86,5.06-.62,1.82-1.01,3.43-1.16,4.82,2.94-.54,5.99-1.05,9.12-1.51,3.14-.46,6.45-.7,9.94-.7,2.09,0,3.78.41,5.06,1.22,1.28.81,2.27,2.15,2.96,4.01v-.12c.93,1.86,1.76,3.91,2.5,6.16.74,2.25,1.1,4.38,1.1,6.39,0,1.78-.43,3.02-1.28,3.72-.85.7-2.4,1.28-4.65,1.74-4.96,1.09-10.06,2.19-15.29,3.31-5.23,1.12-10.29,2.23-15.17,3.31l.12-.12c-2.17.54-3.99.81-5.46.81-1.71,0-3.2-.23-4.48-.7-1.28-.47-2.46-1.14-3.54-2.03-1.09-.89-2.19-1.94-3.31-3.14-1.12-1.2-2.34-2.58-3.66-4.13v.12c-1.08-1.16-1.94-2.44-2.56-3.84-.62-1.4-.93-3.1-.93-5.11,0-1.16.12-2.32.35-3.49l20.23-77.42,1.51-1.63Z"/><path d="m601.34,379.91l-.23-2.33c-5.27.78-10.44,1.57-15.52,2.38-5.08.81-9.55,1.73-13.43,2.73-1.24,2.17-2.42,4.52-3.55,7.03-1.12,2.52-2.27,4.84-3.43,6.97-1.16,2.13-2.33,3.89-3.49,5.29-1.16,1.4-2.44,2.09-3.84,2.09-1.24,0-2.6-.31-4.07-.93l-1.39-.7c-1.24-.62-2.48-1.28-3.72-1.98-1.24-.7-2.34-1.45-3.31-2.27-.97-.81-1.76-1.7-2.38-2.67-.62-.97-.93-2.07-.93-3.31,0-.85.1-1.78.29-2.79.19-1.01.56-2.17,1.1-3.49,2.64-5.89,5.83-12.57,9.59-20.05,3.76-7.48,7.71-15.09,11.86-22.84,4.14-7.75,8.29-15.27,12.44-22.55,4.14-7.28,7.96-13.64,11.45-19.06,1.32-2.01,2.89-3.7,4.71-5.06,1.82-1.35,4.32-2.03,7.5-2.03,5.35,0,9.82.45,13.43,1.34,3.6.89,6.76,1.8,9.47,2.73l2.09.58c2.4.85,4.03,1.92,4.88,3.2.85,1.28,1.28,2.93,1.28,4.94v1.28c0,.39-.04.78-.12,1.16v-.12c-.62,5.11-1.18,11.2-1.69,18.25-.5,7.05-.97,14.53-1.39,22.44-.43,7.9-.8,15.98-1.1,24.24-.31,8.25-.58,16.1-.81,23.54,0,2.48-.46,4.18-1.39,5.11-.93.93-2.83,1.39-5.7,1.39-2.17,0-4.18-.08-6.04-.23-1.86-.16-3.8-.66-5.81-1.51l.12.12c-2.4-.78-4.05-1.8-4.94-3.08-.89-1.28-1.41-3.47-1.57-6.57-.23-3.8-.35-8.21-.35-13.25Zm-5.87-39.7c-2.67,4.61-5.37,9.4-8.08,14.36,2.4-.39,4.77-.7,7.09-.93,2.33-.23,4.69-.42,7.09-.58.23-4.42.47-8.79.7-13.14.23-4.34.5-8.6.81-12.79-2.4,4.11-4.94,8.47-7.61,13.08Z"/><path d="m725.49,315.8c-.85.74-2.44,1.18-4.77,1.34-2.71.39-5.52.7-8.43.93s-5.95.5-9.12.81c-1.94,6.28-3.95,12.88-6.04,19.82-2.09,6.94-4.18,13.91-6.28,20.92-2.09,7.01-4.09,13.97-5.99,20.87-1.9,6.9-3.66,13.45-5.29,19.65l.12-.12c-.39,1.78-1.05,3.02-1.98,3.72s-2.09,1.05-3.49,1.05c-1.09,0-2.44-.23-4.07-.7-1.63-.46-3.25-1.01-4.88-1.63h.12c-3.1-1.08-5.64-2.34-7.61-3.78-1.98-1.43-2.96-3.62-2.96-6.57,0-.93.19-2.17.58-3.72v.12c.7-3.87,1.65-8.52,2.85-13.95,1.2-5.42,2.54-11.1,4.01-17.03,1.47-5.93,3.04-11.9,4.71-17.9,1.67-6,3.27-11.57,4.82-16.68-2.25.39-4.18.78-5.81,1.16-1.63.39-3.18.58-4.65.58-1.63,0-3.08-.52-4.36-1.57-1.28-1.05-2.4-2.34-3.37-3.89-.97-1.55-1.82-3.18-2.56-4.88-.74-1.7-1.34-3.25-1.8-4.65l-.35-1.05v.12c-.31-.93-.46-1.9-.46-2.91,0-1.47.41-2.54,1.22-3.2.81-.66,1.99-1.14,3.55-1.45,4.11-.77,8.74-1.51,13.89-2.21,5.15-.7,10.4-1.32,15.75-1.86,5.35-.54,10.58-1.01,15.69-1.4,5.12-.39,9.72-.66,13.83-.81,2.48,0,4.34.29,5.58.87,1.24.58,2.33,1.42,3.25,2.5.7.93,1.38,1.98,2.03,3.14.66,1.16,1.26,2.38,1.8,3.66.54,1.28.97,2.54,1.28,3.78.31,1.24.47,2.4.47,3.49,0,1.55-.43,2.69-1.28,3.43Z"/><path d="m717.35,371.19c2.71-1.24,5.62-1.86,8.72-1.86,2.01,0,3.91.25,5.7.76,1.78.5,3.37,1.3,4.77,2.38,4.11,3.02,7.83,5.29,11.16,6.8,3.33,1.51,6.2,2.27,8.6,2.27,1.78,0,3.18-.39,4.19-1.16-.16-.93-1.36-2.32-3.6-4.18-2.25-1.86-4.88-3.91-7.91-6.16-2.79-2.09-5.54-4.19-8.25-6.28-2.71-2.09-5.13-4.36-7.27-6.8-2.13-2.44-3.84-5.15-5.11-8.14-1.28-2.98-1.92-6.33-1.92-10.06s.97-8.1,2.91-12.67l-.12.12c.93-2.71,2.34-5.56,4.24-8.54,1.9-2.98,4.07-5.85,6.51-8.6,2.44-2.75,5.08-5.33,7.9-7.73,2.83-2.4,5.6-4.38,8.31-5.93l-.23.12c1.4-1.08,3.24-1.99,5.52-2.73,2.29-.74,4.78-1.1,7.5-1.1,1.86,0,3.93.29,6.22.87,2.28.58,4.61,1.38,6.97,2.38,2.36,1.01,4.63,2.21,6.8,3.6,2.17,1.4,4.03,2.87,5.58,4.42,2.4,2.4,3.91,4.84,4.53,7.32.62,2.48.93,4.81.93,6.98v2.91c-.31,1.86-.75,4.07-1.34,6.63-.58,2.56-1.28,5.13-2.09,7.73-.81,2.6-1.69,5.13-2.62,7.61-.93,2.48-1.86,4.61-2.79,6.39-.85,1.32-1.71,2.34-2.56,3.08-.85.74-1.94,1.1-3.25,1.1-1.09,0-2.37-.31-3.84-.93l.12.12c-9.69-3.64-14.53-8.79-14.53-15.46,0-.77.21-1.96.64-3.55.43-1.59.91-3.31,1.45-5.17.54-1.86,1.06-3.74,1.57-5.64.5-1.9.83-3.51.99-4.82-.08.08-.16.12-.23.12l-.12.12c-1.4.7-2.95,1.82-4.65,3.37-1.71,1.55-3.31,3.31-4.82,5.29-1.51,1.98-2.77,4.11-3.78,6.39-1.01,2.29-1.51,4.52-1.51,6.68,0,2.4.74,4.46,2.21,6.16v-.12c2.79,3.02,5.93,5.79,9.42,8.31,3.49,2.52,6.76,5.02,9.82,7.5,3.06,2.48,5.66,5.06,7.79,7.73,2.13,2.67,3.2,5.68,3.2,9.01,0,2.25-.58,4.53-1.74,6.86v-.12c-.93,2.02-2.19,4.17-3.78,6.45-1.59,2.29-3.68,4.42-6.28,6.39-2.6,1.98-5.74,3.66-9.42,5.06-3.68,1.4-8.04,2.13-13.08,2.21h-1.51c-6.35,0-12.4-1.45-18.13-4.36-5.74-2.91-11.35-7.73-16.86-14.47-3.25-3.56-4.88-6.43-4.88-8.6v-.23c.16-2.48,1.39-4.38,3.72-5.7l.23-.12Z"/><path d="m362.11,522.51c-2.56,1.55-5.23,2.91-8.02,4.07s-5.7,2.09-8.72,2.79h.12c-2.02.62-4.13,1.18-6.33,1.69-2.21.5-4.52.76-6.92.76-3.25-.08-6.61-.64-10.05-1.69-3.45-1.05-6.96-3.04-10.52-5.99-3.57-2.94-6.1-6.04-7.61-9.3-1.51-3.25-2.27-6.35-2.27-9.3s.6-5.68,1.8-8.43c1.2-2.75,2.89-5.41,5.06-7.96,2.17-2.56,4.77-5.02,7.79-7.38,3.02-2.36,6.35-4.63,10-6.8-.31-.77-.51-1.32-.58-1.63-1.01-1.47-1.86-3.04-2.56-4.71-.7-1.67-1.28-3.33-1.74-5-.46-1.67-.8-3.25-.99-4.77-.19-1.51-.29-2.89-.29-4.13,0-4.96,1.55-9.96,4.65-15v.12c1.7-2.87,3.87-5.46,6.51-7.79,2.63-2.33,5.52-4.3,8.66-5.93s6.41-2.87,9.82-3.72c3.41-.85,6.74-1.28,10-1.28s6.39.66,9.42,1.98c3.02,1.32,6.16,3.84,9.42,7.56,5.5,6.12,8.25,12.44,8.25,18.95s-2.71,12.36-8.14,18.02h.12c-2.48,2.64-5.56,5.19-9.24,7.67-3.68,2.48-7.46,4.84-11.33,7.09,1.24,1.86,2.48,3.64,3.72,5.35,1.24,1.71,2.52,3.45,3.84,5.23,1.24-.93,2.54-1.98,3.89-3.14,1.35-1.16,2.71-2.25,4.07-3.25,1.36-1.01,2.65-1.86,3.89-2.56,1.24-.7,2.36-1.05,3.37-1.05s1.9.27,2.67.81c.77.54,1.41,1.26,1.92,2.15.5.89.89,1.88,1.16,2.96.27,1.09.41,2.13.41,3.14,0,1.39-.23,2.89-.7,4.48-.46,1.59-1.09,3.18-1.86,4.77-.78,1.59-1.67,3.06-2.67,4.42-1.01,1.36-2.02,2.42-3.02,3.2l1.98,2.09v-.12c.77.85,1.55,1.71,2.32,2.56.77.85,1.49,1.69,2.15,2.5.66.81,1.2,1.61,1.63,2.38.42.78.64,1.43.64,1.98,0,1.01-.29,1.88-.87,2.62-.58.74-1.42,1.49-2.5,2.27l.12-.12c-1.55,1.09-3.1,2.07-4.65,2.96-1.55.89-3.53,1.34-5.93,1.34-1.78,0-3.37-.37-4.77-1.1-1.39-.74-3.18-2.07-5.35-4.01l-1.74-1.74Zm-24.93-13.66c2.75-.89,5.87-2.19,9.36-3.89-1.39-1.78-2.69-3.51-3.89-5.17-1.2-1.67-2.46-3.39-3.78-5.17-3.8,2.95-6.53,5.58-8.2,7.9-1.67,2.33-2.58,4.34-2.73,6.04v.23c0,.7.15,1.1.46,1.22.31.12.93.17,1.86.17,1.86,0,4.16-.44,6.92-1.34Zm9.65-48.36c.12.89.37,1.8.76,2.73,1.94-1.08,3.87-2.25,5.81-3.49,1.94-1.24,3.64-2.58,5.11-4.01,1.47-1.43,2.67-2.98,3.6-4.65.93-1.67,1.4-3.43,1.4-5.29,0-1.24-.35-2.44-1.05-3.6-2.09.62-4.09,1.47-5.99,2.56-1.9,1.09-3.57,2.32-5,3.72-1.43,1.39-2.6,2.91-3.49,4.53-.89,1.63-1.34,3.25-1.34,4.88,0,.85.06,1.73.17,2.62Z"/><path d="m487.19,443.29c-.85.74-2.44,1.18-4.77,1.34-2.71.39-5.52.7-8.43.93s-5.95.5-9.12.81c-1.94,6.28-3.95,12.88-6.04,19.82-2.09,6.94-4.18,13.91-6.28,20.92-2.09,7.01-4.09,13.97-5.99,20.87-1.9,6.9-3.66,13.45-5.29,19.64l.12-.12c-.39,1.78-1.05,3.02-1.98,3.72-.93.7-2.09,1.05-3.49,1.05-1.09,0-2.44-.23-4.07-.7-1.63-.47-3.25-1.01-4.88-1.63h.12c-3.1-1.08-5.64-2.34-7.61-3.78-1.98-1.43-2.96-3.62-2.96-6.57,0-.93.19-2.17.58-3.72v.12c.7-3.87,1.65-8.52,2.85-13.95,1.2-5.42,2.54-11.1,4.01-17.03,1.47-5.93,3.04-11.89,4.71-17.9,1.67-6,3.27-11.57,4.82-16.68-2.25.39-4.18.78-5.81,1.16-1.63.39-3.18.58-4.65.58-1.63,0-3.08-.52-4.36-1.57-1.28-1.05-2.4-2.34-3.37-3.89-.97-1.55-1.82-3.18-2.56-4.88-.74-1.7-1.34-3.25-1.8-4.65l-.35-1.05v.12c-.31-.93-.46-1.9-.46-2.91,0-1.47.41-2.54,1.22-3.2.81-.66,1.99-1.14,3.54-1.45,4.11-.77,8.74-1.51,13.89-2.21,5.15-.7,10.4-1.32,15.75-1.86,5.35-.54,10.58-1.01,15.69-1.4,5.11-.39,9.72-.66,13.83-.81,2.48,0,4.34.29,5.58.87,1.24.58,2.33,1.42,3.25,2.5.7.93,1.38,1.98,2.04,3.14.66,1.16,1.26,2.38,1.8,3.66.54,1.28.97,2.54,1.28,3.78.31,1.24.46,2.4.46,3.49,0,1.55-.43,2.69-1.28,3.43Z"/><path d="m534.73,507.4l-.23-2.32c-5.27.78-10.44,1.57-15.52,2.38-5.08.81-9.55,1.73-13.43,2.73-1.24,2.17-2.42,4.52-3.54,7.03-1.12,2.52-2.27,4.84-3.43,6.97-1.16,2.13-2.33,3.89-3.49,5.29s-2.44,2.09-3.84,2.09c-1.24,0-2.6-.31-4.07-.93l-1.4-.7c-1.24-.62-2.48-1.28-3.72-1.98-1.24-.7-2.34-1.45-3.31-2.27-.97-.81-1.76-1.7-2.38-2.67-.62-.97-.93-2.07-.93-3.31,0-.85.1-1.78.29-2.79.19-1.01.56-2.17,1.1-3.49,2.63-5.89,5.83-12.57,9.59-20.05,3.76-7.48,7.71-15.09,11.86-22.84,4.14-7.75,8.29-15.27,12.44-22.55,4.15-7.28,7.96-13.64,11.45-19.06,1.32-2.01,2.89-3.7,4.71-5.06,1.82-1.36,4.32-2.03,7.5-2.03,5.35,0,9.82.45,13.43,1.34,3.6.89,6.76,1.8,9.47,2.73l2.09.58c2.4.85,4.03,1.92,4.88,3.2.85,1.28,1.28,2.93,1.28,4.94v1.28c0,.39-.04.78-.12,1.16v-.12c-.62,5.12-1.18,11.2-1.69,18.25-.5,7.05-.97,14.53-1.39,22.44-.43,7.9-.8,15.98-1.1,24.24-.31,8.25-.58,16.1-.81,23.54,0,2.48-.47,4.18-1.4,5.11-.93.93-2.83,1.4-5.7,1.4-2.17,0-4.18-.08-6.04-.23-1.86-.16-3.8-.66-5.81-1.51l.12.12c-2.4-.78-4.05-1.8-4.94-3.08-.89-1.28-1.42-3.47-1.57-6.57-.23-3.8-.35-8.21-.35-13.25Zm-5.87-39.7c-2.67,4.61-5.37,9.4-8.08,14.36,2.4-.39,4.77-.7,7.09-.93s4.69-.43,7.09-.58c.23-4.42.46-8.79.7-13.14.23-4.34.5-8.6.81-12.79-2.4,4.11-4.94,8.47-7.61,13.08Z"/><path d="m611.57,430.79c1.55,1.09,2.65,2.11,3.31,3.08.66.97.99,2.11.99,3.43,0,1.16-.23,2.48-.7,3.95-1.16,3.33-2.44,7.23-3.84,11.68-1.39,4.46-2.85,9.22-4.36,14.3-1.51,5.08-3.02,10.33-4.53,15.75-1.51,5.43-2.98,10.75-4.42,15.98-1.44,5.23-2.79,10.27-4.07,15.11-1.28,4.84-2.42,9.2-3.43,13.08-.54,1.71-1.14,2.92-1.8,3.66-.66.74-1.76,1.1-3.31,1.1-.39,0-.85-.04-1.39-.12-.54-.08-1.16-.23-1.86-.46-1.86-.62-3.68-1.24-5.46-1.86-1.78-.62-3.41-1.38-4.88-2.27-1.47-.89-2.65-1.96-3.54-3.2-.89-1.24-1.34-2.75-1.34-4.53,0-.77.04-1.41.12-1.92.08-.5.19-1.1.35-1.8.46-3.02,1.16-6.8,2.09-11.33.93-4.53,2.02-9.43,3.25-14.71,1.24-5.27,2.58-10.75,4.01-16.45,1.43-5.7,2.85-11.24,4.24-16.62,1.39-5.39,2.75-10.44,4.07-15.17,1.32-4.73,2.52-8.76,3.6-12.09.77-2.01,1.63-3.43,2.56-4.24s2.17-1.22,3.72-1.22c1.01,0,2.23.21,3.66.64,1.43.43,2.94.97,4.53,1.63,1.59.66,3.12,1.39,4.59,2.21,1.47.81,2.79,1.65,3.95,2.5l-.12-.12Z"/><path d="m660.16,524.02c-4.88,1.16-9.9,2.25-15.05,3.25-5.15,1.01-10.05,2.09-14.71,3.25h.12c-1.16.39-2.23.64-3.2.76-.97.12-1.88.17-2.73.17-1.78,0-3.18-.27-4.19-.81-1.01-.54-1.94-1.2-2.79-1.98v.12c-.85-.77-1.67-1.53-2.44-2.27-.78-.74-1.63-1.61-2.56-2.62h.12l-2.33-2.32c-1.08-1.08-1.94-2.29-2.56-3.6-.62-1.32-.93-2.87-.93-4.65,0-.54.04-1.1.12-1.69.08-.58.23-1.26.47-2.03l-.12.23c.62-3.33,1.43-7.17,2.44-11.51,1.01-4.34,2.15-8.95,3.43-13.83,1.28-4.88,2.65-9.94,4.13-15.17,1.47-5.23,2.96-10.35,4.48-15.34,1.51-5,3.02-9.76,4.53-14.3,1.51-4.53,2.92-8.62,4.24-12.26,1.55-3.49,3.72-5.23,6.51-5.23,1.86,0,4.01.43,6.45,1.28,2.44.85,4.75,1.94,6.92,3.25,2.17,1.32,4.01,2.73,5.52,4.24,1.51,1.51,2.27,2.96,2.27,4.36,0,.62-.08,1.22-.23,1.8-.16.58-.43,1.3-.81,2.15l.12-.12c-1.55,4.18-3.22,8.82-5,13.89-1.78,5.08-3.57,10.4-5.35,15.98-1.78,5.58-3.57,11.26-5.35,17.03-1.78,5.77-3.49,11.41-5.12,16.91,2.94-.46,5.83-.93,8.66-1.39,2.83-.46,5.95-.7,9.36-.7,1.94,0,3.5.39,4.71,1.16,1.2.78,2.27,2.09,3.2,3.95l-.12-.12c1.24,2.02,2.19,4.28,2.85,6.8.66,2.52.99,4.63.99,6.33,0,1.39-.43,2.4-1.28,3.02-.85.62-2.4,1.24-4.65,1.86l-.12.12Z"/><path d="m674.22,498.68c2.71-1.24,5.62-1.86,8.72-1.86,2.01,0,3.91.25,5.7.76,1.78.5,3.37,1.3,4.77,2.38,4.11,3.02,7.83,5.29,11.16,6.8,3.33,1.51,6.2,2.27,8.6,2.27,1.78,0,3.18-.39,4.18-1.16-.16-.93-1.36-2.33-3.6-4.19-2.25-1.86-4.88-3.91-7.9-6.16-2.79-2.09-5.54-4.18-8.25-6.28-2.71-2.09-5.13-4.36-7.26-6.8-2.13-2.44-3.84-5.15-5.12-8.14-1.28-2.98-1.92-6.33-1.92-10.06s.97-8.1,2.91-12.67l-.12.12c.93-2.71,2.34-5.56,4.24-8.54,1.9-2.98,4.07-5.85,6.51-8.6,2.44-2.75,5.07-5.33,7.9-7.73,2.83-2.4,5.6-4.38,8.31-5.93l-.23.12c1.39-1.08,3.23-1.99,5.52-2.73,2.29-.74,4.78-1.1,7.5-1.1,1.86,0,3.93.29,6.22.87,2.29.58,4.61,1.38,6.97,2.38,2.36,1.01,4.63,2.21,6.8,3.6,2.17,1.39,4.03,2.87,5.58,4.42,2.4,2.4,3.91,4.84,4.53,7.32.62,2.48.93,4.81.93,6.98v2.91c-.31,1.86-.76,4.07-1.34,6.63-.58,2.56-1.28,5.13-2.09,7.73-.81,2.6-1.69,5.13-2.62,7.61-.93,2.48-1.86,4.61-2.79,6.39-.85,1.32-1.71,2.34-2.56,3.08-.85.74-1.94,1.1-3.25,1.1-1.09,0-2.37-.31-3.84-.93l.12.12c-9.69-3.64-14.53-8.79-14.53-15.46,0-.77.21-1.96.64-3.54.42-1.59.91-3.31,1.45-5.17.54-1.86,1.06-3.74,1.57-5.64.5-1.9.83-3.5.99-4.82-.08.08-.16.12-.23.12l-.12.12c-1.39.7-2.95,1.82-4.65,3.37-1.71,1.55-3.31,3.31-4.82,5.29-1.51,1.98-2.77,4.11-3.78,6.39-1.01,2.29-1.51,4.51-1.51,6.68,0,2.4.74,4.46,2.21,6.16v-.12c2.79,3.02,5.93,5.79,9.42,8.31,3.49,2.52,6.76,5.02,9.82,7.5,3.06,2.48,5.66,5.06,7.79,7.73,2.13,2.67,3.2,5.68,3.2,9.01,0,2.25-.58,4.53-1.74,6.86v-.12c-.93,2.02-2.19,4.17-3.78,6.45-1.59,2.29-3.68,4.42-6.28,6.39-2.6,1.98-5.74,3.66-9.42,5.06-3.68,1.4-8.04,2.13-13.08,2.21h-1.51c-6.36,0-12.4-1.45-18.13-4.36-5.74-2.91-11.35-7.73-16.86-14.47-3.25-3.56-4.88-6.43-4.88-8.6v-.23c.16-2.48,1.4-4.38,3.72-5.7l.23-.12Z"/><path d="m64.02,326.22c-11.62,6.71-20.29,16.71-26.42,26l31.9-28.06c3.83-3.37,10.64-8.64,19.19-14.95-1.13.49-2.25,1.02-3.36,1.55-5.15,3.47-11.04,9.54-21.31,15.47Z"/><path d="m221.85,444.15c2.19.4,4.2,1.3,5.93,2.7,1.71,1.41,3.04,3.27,3.62,5.44-.93-.64-1.71-1.34-2.5-2.01-2.24-2.07-5.01-3.83-7.05-6.12h0Z"/><path d="m219.8,442.63c5.12,1.77,11.26,9.45,10.11,15.05-.78-3.02-2.61-5.41-4.32-7.93-1.8-2.5-3.62-4.87-5.79-7.12h0Z"/><path d="m37.61,444.15c-2.04,2.29-4.81,4.05-7.05,6.12-.79.67-1.57,1.37-2.5,2.01.58-2.16,1.91-4.02,3.62-5.44,1.73-1.4,3.73-2.3,5.93-2.7h0Z"/><path d="m39.66,442.63c-2.17,2.25-3.99,4.62-5.79,7.12-1.71,2.52-3.54,4.91-4.32,7.93-1.15-5.6,4.98-13.28,10.11-15.05h0Z"/><path d="m129.73,502.54c6.48-.58,12.95-.77,19.43-.89,2.93-.19,6.03,1.03,7.9,3.33,0,0,1.03,1.28,1.03,1.28.62.82,1.44,1.74,2.03,2.61,2.07,2.86,1.48,6.63,1.38,9.92.02,2.2-.76,4.58-2.3,6.21-.94.97-3.16,3.58-1.32,1.02,1.64-2.13,2.71-4.48,2.38-7.23-.2-2.9.28-6.48-1.62-8.91-.49-.67-1.44-1.77-1.99-2.47-1.17-1.55-2.66-3.05-4.57-3.6-3.03-.76-6.29-.28-9.4-.54-4.32-.14-8.64-.34-12.96-.73h0Z"/><path d="m153.4,436.14c2.04.45,3.86,1.39,5.38,2.81,1.49,1.44,2.59,3.26,2.96,5.32-.85-.64-1.54-1.33-2.23-1.99l-2.02-1.96c-1.27-1.24-3.04-2.7-4.08-4.18h0Z"/><path d="m151.61,434.62c4.9,2.08,10,9.66,8.82,15.05-.76-2.9-2.31-5.3-3.8-7.83-1.56-2.51-3.11-4.91-5.02-7.23h0Z"/><path d="m150.43,438c4.01,1.13,6.84,4.51,8.97,7.89.67,1.16,1.27,2.38,1.62,3.78-2.44-1.32-4.31-3.15-6.09-5.17-1.77-2.03-3.14-4.12-4.5-6.51h0Z"/><path d="m152.86,440.29c3.82,1.86,6.11,5.7,7.72,9.45.49,1.28.9,2.6,1.04,4.07-2.23-1.74-3.81-3.9-5.28-6.22-1.45-2.33-2.51-4.67-3.49-7.3h0Z"/><path d="m106.06,436.14c-1.03,1.48-2.81,2.94-4.08,4.18,0,0-2.02,1.96-2.02,1.96-.69.66-1.39,1.35-2.23,1.99.37-2.06,1.46-3.88,2.96-5.32,1.52-1.42,3.34-2.37,5.38-2.81h0Z"/><path d="m107.85,434.62c-1.91,2.31-3.46,4.72-5.02,7.23-1.49,2.53-3.04,4.92-3.8,7.83-1.18-5.39,3.92-12.97,8.82-15.05h0Z"/><path d="m109.02,438c-1.36,2.38-2.73,4.48-4.5,6.51-1.78,2.02-3.65,3.84-6.09,5.17.35-1.4.94-2.62,1.62-3.78,2.14-3.38,4.96-6.76,8.97-7.89h0Z"/><path d="m106.6,440.29c-.98,2.62-2.03,4.96-3.49,7.3-1.47,2.32-3.05,4.48-5.28,6.22.14-1.46.55-2.79,1.04-4.07,1.62-3.75,3.9-7.6,7.72-9.45h0Z"/><path d="m194.31,188.52c.74,0,1.48.28,2.06.85l22.59,22.27c21.3,21.01,33.71,49.41,34.65,79.32l.78,25.02c.32,10.37-.74,20.74-3.16,30.82l-8.51,35.47c3.02,6.09,5.32,12.4,6.73,18.8-1.97-2.86-3.94-5.68-5.93-8.47.01.04.02.09.03.13.18.71.35,1.43.52,2.15,0,.04.02.07.03.11.37,1.59.73,3.2,1.07,4.81.01.06.02.11.04.17.03.15.06.3.09.45.03.14.06.27.09.41.44,2.17.86,4.36,1.24,6.55,0,0,0,0,0,0,4.69,26.49,5.41,53.28,5.41,53.28l-2.95.08,1.23,13.18-9.35-.29-.43,5.03-24.45-2.42c-.41-.04-.81-.06-1.21-.06-5.06,0-9.65,3.13-11.46,7.94l-15.29,40.69c.17,2.44.3,4.93-.02,7.36-.34,2.66-1.06,6.08-1.47,8.71-1.01,6.61-4.55,12.66-9.53,17.03l-.02.32-.23.59c-3.52,9.08-10.11,16.64-18.63,21.35l-1.54.85,1.84,15.23c0,8.42-8.46,15.24-18.89,15.24h-19.81c-10.43,0-18.89-6.82-18.89-15.24l1.84-15.23-1.54-.85c-8.52-4.72-15.11-12.27-18.63-21.35l-.23-.59v-.31c-5-4.37-8.54-10.42-9.55-17.04-.4-2.64-1.13-6.03-1.47-8.71-.32-2.43-.19-4.92-.02-7.36l-15.29-40.69c-1.81-4.81-6.4-7.94-11.46-7.94-.4,0-.81.02-1.21.06l-24.45,2.42-.43-5.03-9.35.29,1.23-13.18-2.95-.08s.72-26.8,5.41-53.28c0,0,0,0,0,0,.18-1.04.38-2.09.57-3.13.33-2.05.75-4.1,1.25-6.14.23-1.05.46-2.09.71-3.13,0-.04.02-.07.03-.11.17-.72.34-1.44.52-2.15.02-.08.04-.15.06-.23-2.01,2.82-4.01,5.68-6,8.57,1.41-6.39,3.71-12.71,6.73-18.8l-8.51-35.47c-2.42-10.09-3.48-20.45-3.16-30.82l.78-25.02c.94-29.91,13.34-58.31,34.65-79.32l22.59-22.27c.58-.57,1.32-.85,2.06-.85.9,0,1.8.41,2.38,1.21l20.09,27.65c13.02,17.92,20.67,39.18,22.04,61.29l1.44,23.2c6.25-1.33,12.46-1.99,18.68-1.99,6.2,0,12.41.66,18.64,1.98l1.44-23.19c1.37-22.11,9.01-43.37,22.04-61.29l20.09-27.65c.58-.8,1.48-1.21,2.38-1.21m0-4.96h0c-2.52,0-4.91,1.22-6.4,3.26l-20.09,27.65c-13.6,18.71-21.54,40.81-22.98,63.9l-1.09,17.62c-4.69-.71-9.39-1.07-14.03-1.07-4.66,0-9.37.36-14.07,1.07l-1.09-17.62c-1.43-23.09-9.38-45.19-22.97-63.9l-20.09-27.65c-1.48-2.04-3.87-3.26-6.4-3.26-2.09,0-4.06.81-5.55,2.28l-22.59,22.27C14.65,230.11,1.82,259.47.84,290.8l-.78,25.02c-.34,10.81.77,21.62,3.29,32.14l8.09,33.74c-2.87,6.06-5,12.21-6.34,18.29-.51,2.32.69,4.68,2.87,5.62.04.02.08.03.11.05-.05.28-.1.57-.15.85-4.7,26.55-5.45,52.91-5.48,54.02-.05,1.9.98,3.59,2.53,4.46l-.79,8.47c-.13,1.42.35,2.82,1.33,3.86.94,1,2.25,1.56,3.62,1.56.05,0,.1,0,.15,0l4.64-.14.03.34c.11,1.32.75,2.55,1.77,3.4.9.74,2.02,1.15,3.17,1.15.16,0,.33,0,.49-.02l24.45-2.42c.24-.02.48-.04.72-.04,3.01,0,5.75,1.9,6.82,4.72l14.91,39.68c-.14,2.31-.21,4.75.13,7.26.21,1.64.54,3.47.87,5.24.23,1.28.46,2.5.62,3.55,1.09,7.15,4.65,13.85,10.07,19.02,3.74,9.63,10.62,17.77,19.46,23.07l-1.44,11.94c-.02.2-.04.4-.04.59,0,11.14,10.7,20.21,23.86,20.21h19.81c13.16,0,23.86-9.07,23.86-20.21,0-.2-.01-.4-.04-.59l-1.44-11.94c8.84-5.3,15.72-13.44,19.46-23.07,5.42-5.17,8.98-11.87,10.07-19.01.15-.98.36-2.11.58-3.31.34-1.87.69-3.8.91-5.52.33-2.48.26-4.92.12-7.23l14.91-39.68c1.06-2.83,3.8-4.72,6.82-4.72.24,0,.48.01.72.04l24.45,2.42c.16.02.33.02.49.02,1.15,0,2.28-.4,3.17-1.15,1.02-.85,1.66-2.07,1.77-3.4l.03-.34,4.64.14c.05,0,.1,0,.15,0,1.37,0,2.68-.56,3.62-1.56.98-1.04,1.46-2.44,1.33-3.86l-.79-8.47c1.55-.87,2.58-2.56,2.53-4.46-.03-1.11-.78-27.47-5.48-54.02-.05-.29-.1-.58-.16-.87.02-.01.05-.02.07-.03,2.18-.95,3.38-3.3,2.87-5.62-1.34-6.08-3.47-12.23-6.34-18.29l8.09-33.74c2.52-10.52,3.63-21.33,3.29-32.14l-.78-25.02c-.98-31.32-13.81-60.69-36.12-82.69l-22.59-22.27c-1.49-1.47-3.46-2.28-5.55-2.28h0Z"/><path d="m119,558.41c-5.85,4.78-13.59,7.27-21.17,6.34-4.33-.41-8.43-1.95-12.03-4.28,3.74,7.53,9.69,13.78,17.1,17.89l.15.08c.36-3.48.56-6.97.61-10.46v.03s7.13-4.71,17.88-5.67c5.55-.49,7.55,5.7,8.19,11.82.64-6.11,2.64-12.31,8.19-11.82,10.75.96,17.87,5.67,17.87,5.67v-.03c.06,3.49.26,6.98.62,10.46l.15-.08c7.41-4.1,13.36-10.35,17.1-17.89-3.6,2.32-7.7,3.86-12.03,4.28-7.57.92-15.32-1.56-21.17-6.34-3.38-2.54-7.15-5.31-10.45-7.92h-.57c-3.3,2.61-7.06,5.39-10.45,7.92Z"/><path d="m75.06,523.09s0-.03-.01-.04c0,.09,0,.18-.01.27l-.2,4.32c-.13,2.83.4,5.43.94,8.26l.79,4.29c.86,5.42,3.43,10.43,7.3,14.28.71.73,1.49,1.4,2.28,2.03"/><path d="m71.44,523.12c.22-3.14.44-6.27.68-9.41-2.42-8.08-4.59-16.24-6.73-24.4-4.72-18-22.2-26.98-40.85-21.02-1.27.41-2.69.07-4.02.2l-7.1.7-.42-4.95-2.97.09-.89,9.58,9.35-.29.43,5.03,24.45-2.42c5.52-.55,10.72,2.69,12.68,7.88l15.29,40.69c.04-.57.08-1.13.12-1.69Z"/><path d="m249.43,464.33l-2.97-.09-.42,4.95-7.1-.7c-1.33-.13-2.75.21-4.02-.2-18.64-5.97-36.13,3.01-40.85,21.02-2.14,8.16-4.31,16.32-6.73,24.4.23,3.14.46,6.27.68,9.41.04.56.08,1.12.12,1.69l15.29-40.69c1.95-5.2,7.15-8.43,12.68-7.88l24.45,2.42.43-5.03,9.35.29-.89-9.58Z"/><path d="m184.61,527.64l-.2-4.32c-.69-16.74-1.25-33.47-1.12-50.24l-.67-6.53c-1,6.05-2.94,12.12-5.06,16.67.06-1.93.2-3.85.41-5.75-1.78,4.16-3.91,8.05-6.01,11.1.47-2.35,1.06-4.65,1.74-6.91-1.93,1.92-5.26,1.76-6.92-.69-1.53-2.27-4.9-2.06-6.15.38h0c-3.84,7.52-10.88,12.81-19.09,14.34l-5.61,1.04c-4.48.83-9.07.82-13.55-.06l-4.52-.88c-8.2-1.6-15.23-6.92-19.07-14.45h0c-1.25-2.45-4.62-2.66-6.15-.38-1.66,2.45-4.99,2.61-6.92.69.68,2.27,1.27,4.57,1.74,6.91-2.09-3.04-4.23-6.94-6.01-11.1.21,1.9.35,3.82.41,5.75-2.12-4.54-4.06-10.61-5.06-16.67l-.67,6.53c.13,16.77-.42,33.5-1.12,50.24l-.2,4.32c-.13,2.83.4,5.43.94,8.26l.79,4.29c.86,5.42,3.43,10.43,7.3,14.28,7.75,7.95,20.69,9.95,30.58,4.84,4.43-2.41,8.93-5.33,13.36-7.89l1.36-.93.13.09c.05-.03.1-.06.15-.09-.04.03-.09.07-.13.1l.41.28.41-.28s-.09-.07-.13-.1c.05.03.1.06.15.09l.13-.09,1.36.93c4.43,2.56,8.93,5.49,13.36,7.89,9.88,5.11,22.83,3.11,30.58-4.85,3.87-3.85,6.43-8.86,7.3-14.28l.79-4.29c.54-2.83,1.06-5.43.94-8.26Zm-23.72-8.18c0,1.95-.66,3.85-1.88,5.38l-1.52,1.91c-.17.22-.35.41-.53.6-1.9,1.89-5.05-.17-4.17-2.7l.19-.54c.24-.68.07-1.43-.44-1.93l-.67-.67c-.48-.48-1.13-.75-1.81-.75h-6.98c-1.34,0-2.62.56-3.53,1.53l-1.84,1.97c-.5.54-.78,1.25-.78,1.98,0,.92.44,1.79,1.17,2.33l2.54,1.88c.22.16.4.37.53.62l.77,1.43c.33.61.96.99,1.65.99h8.53l-1.49,1.87c-1.81,2.28-4.57,3.61-7.48,3.61h-26.87c-2.91,0-5.66-1.33-7.48-3.61l-1.49-1.87h8.53c.69,0,1.32-.38,1.65-.99l.77-1.43c.13-.24.31-.45.53-.62l2.54-1.88c.74-.55,1.17-1.41,1.17-2.33,0-.74-.28-1.44-.78-1.98l-1.84-1.97c-.91-.98-2.19-1.53-3.53-1.53h-6.98c-.68,0-1.33.27-1.81.75l-.67.67c-.5.51-.67,1.26-.44,1.93l.19.54c.88,2.53-2.27,4.58-4.17,2.7-.18-.18-.36-.38-.53-.6l-1.52-1.91c-1.22-1.53-1.88-3.42-1.88-5.38v-5.22c0-1.97.67-3.88,1.91-5.41l2.48-3.08c1.64-2.03,4.11-3.22,6.72-3.22h40.11c2.61,0,5.08,1.18,6.72,3.22l2.48,3.08c1.24,1.53,1.91,3.44,1.91,5.41v5.22Z"/><path d="m214.86,405.25c-2.22-7.52-7.05-14-13.61-18.29l-7.31-4.78-15.74-4.55,4.61-.82,8.6,1.5-9.39-3.07c-.89-.29-2.37-.27-4.08-.06-8.54,1-16.07,6.14-20.33,13.61-4.71,8.27-8.67,18.47-9.48,25.04h0c-1.74,6.28,1.37,13.99,6.9,17.41-.51-3.01-1.31-5.86-2.37-8.6,3.23,4.99,7.74,9.05,13.11,11.7l2.91,1.43c6.28,3.09,13.39,4.11,20.28,2.91l.98-.17c5.31-.93,10.31-3.14,14.57-6.44l14.85-11.52-4.52-15.28Zm-32.67.17c1.26,1.2,2.03,3.07,2.06,3.15l-2.12.87s-.62-1.5-1.52-2.36l1.58-1.66Zm-7.55,3.43l-1.99,1.13-.52-.91,1.99-1.13.52.91Zm10.75-5.97c1.91,1.76,3.11,4.23,3.11,6.96,0,5.35-4.55,9.69-10.17,9.69-3.07,0-5.81-1.3-7.68-3.35.93-1.47,2.27-2.71,3.95-3.55.64,1.07,1.83,1.79,3.21,1.79,1.82,0,3.33-1.25,3.64-2.9,3.21-.4,5.38-3.59,4.01-6.59-.03-.06-.05-.11-.08-.17-.37-.78-.82-1.51-1.33-2.19"/><path d="m40.07,420.53l14.85,11.52c4.26,3.3,9.26,5.52,14.57,6.44l.98.17c6.9,1.2,14,.18,20.28-2.91l2.91-1.43c5.38-2.65,9.88-6.71,13.11-11.7-1.06,2.74-1.86,5.59-2.37,8.6,5.53-3.42,8.64-11.13,6.9-17.41h0c-.8-6.57-4.77-16.78-9.48-25.04-4.25-7.47-11.79-12.6-20.33-13.61-1.72-.2-3.19-.23-4.08.06l-9.39,3.07,8.6-1.5,4.61.82-15.74,4.55-7.31,4.78c-6.56,4.29-11.39,10.77-13.61,18.29l-4.52,15.28Zm38.77-13.45c-.9.86-1.52,2.34-1.52,2.36l-2.12-.87c.03-.08.8-1.95,2.06-3.15l1.58,1.66Zm6.49.86l1.99,1.13-.52.91-1.99-1.13.52-.91Zm-9.93-5.37c-.51.68-.96,1.41-1.33,2.19-.03.06-.05.11-.08.17-1.38,3,.79,6.19,4.01,6.59.31,1.65,1.82,2.9,3.64,2.9,1.38,0,2.57-.73,3.21-1.79,1.68.84,3.02,2.09,3.95,3.55-1.86,2.05-4.61,3.35-7.68,3.35-5.62,0-10.17-4.34-10.17-9.69,0-2.74,1.19-5.2,3.11-6.96"/><path d="m111.06,302.08s0-.06,0-.09l-1.45-23.32c-1.37-22.11-9.01-43.37-22.04-61.29l-20.09-27.65c-1.06-1.45-3.16-1.63-4.44-.36l-22.59,22.27c-21.3,21.01-33.71,49.41-34.65,79.32l-.78,25.01c-.32,10.37.74,20.74,3.16,30.83l8.51,35.46c2.04-4.11,4.4-8.11,7.03-11.96l-8.26-24.76c-2.22-9.27-3.2-18.8-2.9-28.33l.78-25.02c.87-27.61,12.17-53.5,31.85-72.9l14.79-14.58c1.28-1.26,3.38-1.09,4.44.36l13.65,18.79c11.99,16.5,18.99,35.98,20.25,56.33l.18,2.87-7.17-13.27,2.01,30-9.27-9.17,3.74,15.14c-6.07,2.71-10.87,4.25-21.76,13.68-11.73,10.17-24.96,26.7-31.15,37.07,4.98-5.22,10.44-9.96,16.2-14.05.09-.08.19-.15.29-.22,19.51-16.05,36.6-27.45,40.51-30.01-3.26,4.37-6.4,8.76-9.46,13.19,5.05-4.39,10.42-8.27,16.07-11.51-1.74,1.97-3.45,3.94-5.15,5.92l11.8-7.02c3.77-2.24,6.15-6.35,5.91-10.73Z"/><path d="m148.35,302.08s0-.06,0-.09l1.45-23.32c1.37-22.11,9.01-43.37,22.04-61.29l20.09-27.65c1.06-1.45,3.16-1.63,4.44-.36l22.59,22.27c21.3,21.01,33.71,49.41,34.65,79.32l.78,25.01c.32,10.37-.74,20.74-3.16,30.83l-8.51,35.46c-2.04-4.11-4.4-8.11-7.03-11.96l8.26-24.76c2.22-9.27,3.2-18.8,2.9-28.33l-.78-25.02c-.87-27.61-12.17-53.5-31.85-72.9l-14.79-14.58c-1.28-1.26-3.38-1.09-4.44.36l-13.65,18.79c-11.99,16.5-18.99,35.98-20.25,56.33l-.18,2.87,7.17-13.27-2.01,30,9.27-9.17-3.74,15.14c6.07,2.71,10.87,4.25,21.76,13.68,11.73,10.17,24.96,26.7,31.15,37.07-4.98-5.22-10.44-9.96-16.2-14.05-.09-.08-.19-.15-.29-.22-19.51-16.05-36.6-27.45-40.51-30.01,3.26,4.37,6.4,8.76,9.46,13.19-5.05-4.39-10.42-8.27-16.07-11.51,1.74,1.97,3.45,3.94,5.15,5.92l-11.8-7.02c-3.77-2.24-6.15-6.35-5.91-10.73Z"/></svg>